<?xml version="1.0" encoding="iso-8859-1"?>
<!-- Generator: Adobe Illustrator 19.0.0, SVG Export Plug-In . SVG Version: 6.00 Build 0)  -->
<svg version="1.1" id="Layer_1" xmlns="http://www.w3.org/2000/svg" xmlns:xlink="http://www.w3.org/1999/xlink" x="0px" y="0px"
	 viewBox="0 0 511.578 511.578" style="enable-background:new 0 0 511.578 511.578;" xml:space="preserve">
<path style="fill:#E6E9ED;" d="M181.187,351.589c0,5.887-4.777,10.664-10.664,10.664c-5.886,0-10.664-4.777-10.664-10.664
	c0-5.886,4.778-10.663,10.664-10.663C176.41,340.926,181.187,345.703,181.187,351.589z"/>
<g>
	<polygon style="fill:#434A54;" points="202.498,437.101 106.573,437.101 71.476,287.405 202.686,288.326 172.444,350.809 	"/>
	<path style="fill:#434A54;" d="M426.315,233.353c0,35.316-28.633,63.95-63.949,63.95s-63.95-28.634-63.95-63.95
		c0-35.332,28.634-63.95,63.95-63.95S426.315,198.021,426.315,233.353z"/>
	<path style="fill:#434A54;" d="M21.312,223.689c0-5.887-4.777-10.664-10.664-10.664S0,217.803,0,223.689l0,0V245l0,0v0.016
		c0,5.871,4.762,10.648,10.648,10.648s10.664-4.777,10.664-10.648V245l0,0L21.312,223.689L21.312,223.689z"/>
</g>
<polygon style="fill:#E6E9ED;" points="394.341,383.564 191.835,319.614 191.835,149.091 394.341,85.141 "/>
<path style="fill:#ED5564;" d="M127.198,276.991c0,5.87-4.777,10.648-10.663,10.648H21.312c-5.886,0-10.664-4.778-10.664-10.648
	v-85.277c0-5.886,4.777-10.647,10.664-10.647h95.223c5.886,0,10.663,4.762,10.663,10.647
	C127.198,191.714,127.198,276.991,127.198,276.991z"/>
<path style="fill:#F5F7FA;" d="M202.498,308.966c0,5.871-4.777,10.648-10.664,10.648H63.951c-5.902,0-10.664-4.777-10.664-10.648
	V159.739c0-5.886,4.762-10.648,10.664-10.648h127.884c5.886,0,10.664,4.762,10.664,10.648v149.227H202.498z"/>
<path style="fill:#CCD1D9;" d="M383.677,74.477c-5.885,0-10.647,4.777-10.647,10.664v298.423c0,5.886,4.763,10.663,10.647,10.663
	c5.887,0,10.664-4.777,10.664-10.663V85.141C394.341,79.255,389.563,74.477,383.677,74.477z"/>
<g>
	<path style="fill:#ED5564;" d="M447.628,223.689c-5.887,0-10.648,4.777-10.648,10.663s4.762,10.664,10.648,10.664h53.302
		c5.886,0,10.647-4.777,10.647-10.664c0-5.886-4.762-10.663-10.647-10.663H447.628z"/>
	<path style="fill:#ED5564;" d="M447.643,202.378c1.311,0,2.654-0.25,3.949-0.766l53.287-21.312
		c5.464-2.186,8.118-8.399,5.933-13.864c-2.187-5.464-8.384-8.119-13.849-5.933l-53.287,21.312c-5.464,2.186-8.118,8.4-5.932,13.864
		C439.399,199.849,443.412,202.378,447.643,202.378z"/>
	<path style="fill:#ED5564;" d="M504.88,288.404l-53.287-21.312c-5.465-2.186-11.662,0.469-13.848,5.933
		c-2.187,5.465,0.468,11.663,5.932,13.849l53.287,21.327c1.296,0.516,2.639,0.765,3.95,0.765c4.231,0,8.243-2.545,9.898-6.713
		C512.998,296.788,510.344,290.59,504.88,288.404z"/>
</g>
<g>
</g>
<g>
</g>
<g>
</g>
<g>
</g>
<g>
</g>
<g>
</g>
<g>
</g>
<g>
</g>
<g>
</g>
<g>
</g>
<g>
</g>
<g>
</g>
<g>
</g>
<g>
</g>
<g>
</g>
</svg>
